 <svg  version="1.0" xmlns="http://www.w3.org/2000/svg"  width="300.000000pt" height="169.000000pt" viewBox="0 0 300.000000 169.000000"  preserveAspectRatio="xMidYMid meet">  <g transform="translate(0.000000,169.000000) scale(0.100000,-0.100000)" fill="#0f3bbd" stroke="none"> <path d="M1370 1321 c-69 -49 -136 -98 -149 -108 l-24 -20 113 -136 113 -137 31 23 c17 13 36 26 42 30 6 3 33 -7 59 -24 40 -26 51 -29 59 -17 6 8 55 66 109 131 54 64 97 121 95 127 -4 13 -299 220 -312 220 -6 0 -67 -41 -136 -89z"/> <path d="M1010 1065 c-63 -46 -116 -88 -118 -94 -7 -20 109 -353 122 -348 6 2 72 24 146 47 74 24 139 47 144 51 5 4 2 27 -7 53 l-15 45 34 26 c19 14 34 30 34 35 0 10 -208 264 -219 267 -3 1 -58 -36 -121 -82z"/> <path d="M1773 1007 c-99 -117 -110 -133 -95 -144 62 -44 58 -35 38 -98 -9 -31 -16 -58 -14 -59 13 -11 292 -125 296 -122 12 13 131 390 125 396 -29 24 -225 160 -231 159 -4 0 -57 -60 -119 -132z"/> <path d="M1185 598 c-82 -28 -152 -52 -154 -54 -1 -1 18 -66 44 -143 l47 -141 169 0 169 0 0 150 0 150 -45 0 c-41 0 -47 3 -55 28 -24 66 -11 65 -175 10z"/> <path d="M1660 595 c-11 -34 -13 -35 -66 -35 l-54 0 0 -150 0 -150 178 2 177 3 37 110 c20 61 37 115 37 121 1 9 -274 134 -293 134 -2 0 -10 -16 -16 -35z"/> </g> </svg> 